<svg width="1200" height="800" viewBox="0 0 1200 800" fill="none" xmlns="http://www.w3.org/2000/svg">
  <defs>
    <linearGradient id="bg" x1="0" y1="0" x2="1" y2="1">
      <stop offset="0%" stop-color="#0a0b0f" />
      <stop offset="100%" stop-color="#11151d" />
    </linearGradient>
    <linearGradient id="accent" x1="0" y1="0" x2="1" y2="0">
      <stop offset="0%" stop-color="#39f5c8" stop-opacity="0.8" />
      <stop offset="100%" stop-color="#39f5c8" stop-opacity="0" />
    </linearGradient>
  </defs>
  <rect width="1200" height="800" fill="url(#bg)" />
  <g opacity="0.2" stroke="#39f5c8" stroke-width="1">
    <path d="M0 100H1200" />
    <path d="M0 200H1200" />
    <path d="M0 300H1200" />
    <path d="M0 400H1200" />
    <path d="M0 500H1200" />
    <path d="M0 600H1200" />
    <path d="M0 700H1200" />
    <path d="M100 0V800" />
    <path d="M300 0V800" />
    <path d="M500 0V800" />
    <path d="M700 0V800" />
    <path d="M900 0V800" />
    <path d="M1100 0V800" />
  </g>
  <rect x="80" y="120" width="1040" height="560" rx="32" fill="#0f131a" stroke="#39f5c8" stroke-opacity="0.4" />
  <rect x="120" y="180" width="420" height="18" rx="9" fill="url(#accent)" />
  <rect x="120" y="220" width="280" height="12" rx="6" fill="#1f2937" />
  <rect x="120" y="250" width="520" height="12" rx="6" fill="#1f2937" />
  <rect x="120" y="280" width="480" height="12" rx="6" fill="#1f2937" />
  <rect x="120" y="320" width="200" height="28" rx="14" fill="#39f5c8" fill-opacity="0.25" />
  <text x="50%" y="55%" dominant-baseline="middle" text-anchor="middle" fill="#6b7280" font-size="32" font-family="Arial, sans-serif" letter-spacing="4">PROJECT PREVIEW</text>
</svg>
